<svg xmlns="http://www.w3.org/2000/svg" width="25" height="25" fill="none" viewBox="0 0 25 25"><g id="bi:save-fill"><path id="Vector" fill="#08299B" d="M13.2812 2.34375C13.2812 1.72215 13.5282 1.12601 13.9677 0.686468C14.4073 0.24693 15.0034 0 15.625 0L21.875 0C22.7038 0 23.4987 0.32924 24.0847 0.915291C24.6708 1.50134 25 2.2962 25 3.125V21.875C25 22.7038 24.6708 23.4987 24.0847 24.0847C23.4987 24.6708 22.7038 25 21.875 25H3.125C2.2962 25 1.50134 24.6708 0.915291 24.0847C0.32924 23.4987 0 22.7038 0 21.875V3.125C0 2.2962 0.32924 1.50134 0.915291 0.915291C1.50134 0.32924 2.2962 0 3.125 0L12.5 0C12.0094 0.653125 11.7188 1.46406 11.7188 2.34375V14.5203L7.58438 10.3844C7.51174 10.3117 7.4255 10.2541 7.3306 10.2148C7.23569 10.1755 7.13397 10.1553 7.03125 10.1553C6.92853 10.1553 6.82681 10.1755 6.7319 10.2148C6.637 10.2541 6.55076 10.3117 6.47812 10.3844C6.40549 10.457 6.34787 10.5432 6.30856 10.6382C6.26925 10.7331 6.24901 10.8348 6.24901 10.9375C6.24901 11.0402 6.26925 11.1419 6.30856 11.2368C6.34787 11.3318 6.40549 11.418 6.47812 11.4906L11.9469 16.9594C12.0194 17.0321 12.1057 17.0899 12.2006 17.1292C12.2955 17.1686 12.3972 17.1889 12.5 17.1889C12.6028 17.1889 12.7045 17.1686 12.7994 17.1292C12.8943 17.0899 12.9806 17.0321 13.0531 16.9594L18.5219 11.4906C18.6686 11.3439 18.751 11.145 18.751 10.9375C18.751 10.73 18.6686 10.5311 18.5219 10.3844C18.3752 10.2377 18.1762 10.1553 17.9688 10.1553C17.7613 10.1553 17.5623 10.2377 17.4156 10.3844L13.2812 14.5203V2.34375Z"/></g></svg>