<svg xmlns="http://www.w3.org/2000/svg" width="30" height="30" fill="none" viewBox="0 0 30 30"><g id="material-symbols:search"><path id="Vector" fill="#C1C1C1" d="M24.5 26.25L16.625 18.375C16 18.875 15.2812 19.2708 14.4687 19.5625C13.6562 19.8542 12.7917 20 11.875 20C9.60417 20 7.6825 19.2133 6.11 17.64C4.5375 16.0667 3.75083 14.145 3.75 11.875C3.75 9.60417 4.53667 7.6825 6.11 6.11C7.68333 4.5375 9.605 3.75083 11.875 3.75C14.1458 3.75 16.0675 4.53667 17.64 6.11C19.2125 7.68333 19.9992 9.605 20 11.875C20 12.7917 19.8542 13.6562 19.5625 14.4687C19.2708 15.2812 18.875 16 18.375 16.625L26.25 24.5L24.5 26.25ZM11.875 17.5C13.4375 17.5 14.7658 16.9529 15.86 15.8588C16.9542 14.7646 17.5008 13.4367 17.5 11.875C17.5 10.3125 16.9529 8.98417 15.8588 7.89C14.7646 6.79583 13.4367 6.24917 11.875 6.25C10.3125 6.25 8.98417 6.79708 7.89 7.89125C6.79583 8.98542 6.24917 10.3133 6.25 11.875C6.25 13.4375 6.79708 14.7658 7.89125 15.86C8.98542 16.9542 10.3133 17.5008 11.875 17.5Z"/></g></svg>