<svg width="22" height="18" viewBox="0 0 22 18" fill="none" xmlns="http://www.w3.org/2000/svg">
<path id="Vector" d="M20.751 6.69246L16.0635 11.38C15.8433 11.6001 15.5447 11.7238 15.2334 11.7238C14.9221 11.7238 14.6235 11.6001 14.4033 11.38C14.1832 11.1598 14.0595 10.8612 14.0595 10.5499C14.0595 10.2385 14.1832 9.93996 14.4033 9.71981L17.0898 7.03524H14.1602C12.3411 7.03464 10.5734 7.6387 9.13517 8.7524C7.6969 9.86611 6.66961 11.4263 6.21484 13.1876C6.17637 13.3366 6.10892 13.4766 6.01635 13.5995C5.92378 13.7225 5.8079 13.826 5.67532 13.9042C5.54274 13.9823 5.39607 14.0336 5.24367 14.0551C5.09127 14.0766 4.93613 14.0678 4.78711 14.0294C4.63809 13.9909 4.49811 13.9235 4.37515 13.8309C4.2522 13.7383 4.14869 13.6224 4.07052 13.4899C3.99235 13.3573 3.94106 13.2106 3.91958 13.0582C3.89809 12.9058 3.90684 12.7507 3.94531 12.6016C4.52907 10.3367 5.84955 8.33027 7.69885 6.89821C9.54814 5.46616 11.8212 4.68984 14.1602 4.69149H17.0898L14.4053 2.00399C14.1851 1.78384 14.0614 1.48525 14.0614 1.17391C14.0614 0.862568 14.1851 0.56398 14.4053 0.343829C14.6254 0.123679 14.924 3.2805e-09 15.2354 0C15.5467 -3.2805e-09 15.8453 0.123679 16.0654 0.343829L20.7529 5.03133C20.8622 5.14035 20.9489 5.26988 21.0079 5.41248C21.067 5.55508 21.0973 5.70795 21.0971 5.8623C21.0969 6.01665 21.0663 6.16945 21.0069 6.31191C20.9475 6.45438 20.8605 6.5837 20.751 6.69246ZM16.7969 15.629H2.34375V4.30086C2.34375 3.99006 2.22029 3.69199 2.00052 3.47222C1.78075 3.25245 1.48268 3.12899 1.17188 3.12899C0.861074 3.12899 0.563003 3.25245 0.343234 3.47222C0.123465 3.69199 0 3.99006 0 4.30086V16.0196C0 16.5376 0.205775 17.0344 0.572057 17.4007C0.938339 17.767 1.43512 17.9727 1.95312 17.9727H16.7969C17.1077 17.9727 17.4057 17.8493 17.6255 17.6295C17.8453 17.4097 17.9688 17.1117 17.9688 16.8009C17.9688 16.4901 17.8453 16.192 17.6255 15.9722C17.4057 15.7525 17.1077 15.629 16.7969 15.629Z" fill="#08299B"/>
</svg>
