<svg xmlns="http://www.w3.org/2000/svg" xmlns:xlink="http://www.w3.org/1999/xlink" width="500" zoomAndPan="magnify" viewBox="0 0 375 374.999991" height="500" preserveAspectRatio="xMidYMid meet" version="1.0"><defs><g/><clipPath id="1216aba19a"><path d="M 131.101562 105.273438 L 239 105.273438 L 239 213 L 131.101562 213 Z M 131.101562 105.273438 " clip-rule="nonzero"/></clipPath></defs><path fill="#2e72b8" d="M 173.167969 211.460938 L 205.714844 178.785156 C 216.757812 167.695312 216.757812 149.722656 205.714844 138.632812 L 222.765625 121.515625 C 243.566406 142.402344 243.566406 176.265625 222.765625 197.152344 C 209.3125 210.660156 190.445312 215.425781 173.167969 211.460938 Z M 173.167969 211.460938 " fill-opacity="1" fill-rule="nonzero"/><path fill="#2b4c9a" d="M 173.167969 211.457031 L 185.097656 199.480469 L 188.851562 195.710938 L 197.03125 211.460938 C 187.261719 212.875 182.347656 212.96875 173.167969 211.457031 Z M 173.167969 211.457031 " fill-opacity="1" fill-rule="nonzero"/><g clip-path="url(#1216aba19a)"><path fill="#1eb8d1" d="M 196.015625 170.378906 C 189.9375 176.429688 180.125 176.390625 174.097656 170.289062 C 168.070312 164.1875 168.109375 154.335938 174.1875 148.28125 C 180.261719 142.230469 190.074219 142.269531 196.105469 148.371094 C 202.128906 154.472656 202.089844 164.328125 196.015625 170.378906 Z M 237.019531 171.308594 C 240.972656 153.964844 236.222656 135.023438 222.765625 121.511719 C 211.664062 110.367188 196.878906 105.167969 182.34375 105.921875 C 171.894531 106.464844 167.007812 119.160156 174.410156 126.589844 L 174.707031 126.886719 C 177.054688 129.242188 180.277344 130.4375 183.59375 130.335938 C 191.125 130.097656 198.726562 132.863281 204.472656 138.632812 Z M 156.21875 157.820312 C 156.320312 154.488281 155.132812 151.25 152.785156 148.894531 L 152.488281 148.597656 C 145.085938 141.167969 132.441406 146.074219 131.902344 156.5625 C 131.152344 171.15625 136.328125 186 147.429688 197.148438 C 160.886719 210.65625 179.753906 215.425781 197.027344 211.457031 L 164.484375 178.78125 C 158.742188 173.011719 155.984375 165.378906 156.21875 157.820312 Z M 156.21875 157.820312 " fill-opacity="1" fill-rule="nonzero"/></g><g fill="#2b4c9a" fill-opacity="1"><g transform="translate(85.981201, 245.528377)"><g><path d="M 19.027344 -26.246094 L 19.027344 -15.703125 L 8.355469 -15.703125 L 8.355469 -26.246094 L 2.582031 -26.246094 L 2.582031 0 L 8.355469 0 L 8.355469 -10.585938 L 19.027344 -10.585938 L 19.027344 0 L 24.757812 0 L 24.757812 -26.246094 Z M 19.027344 -26.246094 "/></g></g></g><g fill="#2b4c9a" fill-opacity="1"><g transform="translate(112.662578, 245.528377)"><g><path d="M 11.109375 0.351562 C 16.972656 0.351562 20.820312 -3.5 20.820312 -8.75 C 20.820312 -13.996094 16.972656 -17.847656 11.109375 -17.847656 C 5.25 -17.847656 1.355469 -13.996094 1.355469 -8.75 C 1.355469 -3.5 5.25 0.351562 11.109375 0.351562 Z M 11.109375 -4.59375 C 8.703125 -4.636719 6.957031 -6.386719 6.957031 -8.75 C 6.957031 -11.109375 8.703125 -12.859375 11.109375 -12.90625 C 13.472656 -12.859375 15.265625 -11.109375 15.265625 -8.75 C 15.265625 -6.386719 13.472656 -4.636719 11.109375 -4.59375 Z M 11.109375 -4.59375 "/></g></g></g><g fill="#2b4c9a" fill-opacity="1"><g transform="translate(134.182613, 245.528377)"><g><path d="M 8.222656 0.351562 C 12.160156 0.351562 14.566406 -2.054688 14.566406 -5.335938 C 14.566406 -8.835938 11.679688 -10.234375 9.1875 -11.199219 C 7.917969 -11.722656 7.304688 -11.984375 7.304688 -12.640625 C 7.304688 -13.210938 7.742188 -13.648438 8.703125 -13.648438 C 9.84375 -13.648438 10.890625 -13.035156 11.417969 -12.378906 L 14.214844 -15.527344 C 12.90625 -16.839844 10.761719 -17.847656 8.3125 -17.847656 C 4.332031 -17.847656 1.792969 -15.222656 1.792969 -12.25 C 1.792969 -8.75 5.292969 -7.566406 7.304688 -6.824219 C 8.878906 -6.210938 9.40625 -5.773438 9.40625 -5.160156 C 9.40625 -4.460938 8.792969 -4.066406 7.875 -4.066406 C 6.957031 -4.066406 5.730469 -4.417969 4.941406 -5.90625 L 0.832031 -3.847656 C 1.882812 -1.136719 5.117188 0.351562 8.222656 0.351562 Z M 8.222656 0.351562 "/></g></g></g><g fill="#2b4c9a" fill-opacity="1"><g transform="translate(148.879178, 245.528377)"><g><path d="M 13.167969 -17.847656 C 11.15625 -17.847656 9.492188 -17.148438 8.179688 -15.964844 L 8.179688 -17.453125 L 2.582031 -17.496094 L 2.582031 10.5 L 8.179688 10.542969 L 8.179688 -1.53125 C 9.492188 -0.351562 11.15625 0.351562 13.167969 0.351562 C 17.980469 0.351562 21.785156 -3.675781 21.785156 -8.75 C 21.785156 -13.824219 17.980469 -17.847656 13.167969 -17.847656 Z M 12.074219 -4.59375 C 9.753906 -4.59375 7.917969 -6.429688 7.917969 -8.75 C 7.917969 -11.066406 9.753906 -12.90625 12.074219 -12.90625 C 14.390625 -12.90625 16.230469 -11.066406 16.230469 -8.75 C 16.230469 -6.429688 14.390625 -4.59375 12.074219 -4.59375 Z M 12.074219 -4.59375 "/></g></g></g><g fill="#2b4c9a" fill-opacity="1"><g transform="translate(171.31775, 245.528377)"><g><path d="M 5.46875 -20.429688 C 7.128906 -20.429688 8.53125 -21.828125 8.53125 -23.492188 C 8.53125 -25.195312 7.128906 -26.550781 5.46875 -26.550781 C 3.804688 -26.550781 2.40625 -25.195312 2.40625 -23.492188 C 2.40625 -21.828125 3.804688 -20.429688 5.46875 -20.429688 Z M 2.667969 0 L 8.222656 0 L 8.222656 -17.496094 L 2.667969 -17.496094 Z M 2.667969 0 "/></g></g></g><g fill="#2b4c9a" fill-opacity="1"><g transform="translate(181.552813, 245.528377)"><g><path d="M 13.125 -13.167969 L 13.125 -17.496094 L 8.96875 -17.496094 L 8.96875 -24.234375 L 3.410156 -24.234375 L 3.410156 -17.496094 L 0.480469 -17.496094 L 0.480469 -13.167969 L 3.410156 -13.167969 L 3.410156 -6.253906 C 3.410156 -2.539062 6.5625 0.351562 10.28125 0.351562 C 11.460938 0.351562 12.640625 0.0859375 13.078125 -0.21875 L 13.078125 -4.550781 L 10.980469 -4.550781 C 9.796875 -4.550781 8.96875 -5.46875 8.96875 -6.910156 L 8.96875 -13.167969 Z M 13.125 -13.167969 "/></g></g></g><g fill="#2b4c9a" fill-opacity="1"><g transform="translate(194.849685, 245.528377)"><g><path d="M 11.109375 0.351562 C 16.972656 0.351562 20.820312 -3.5 20.820312 -8.75 C 20.820312 -13.996094 16.972656 -17.847656 11.109375 -17.847656 C 5.25 -17.847656 1.355469 -13.996094 1.355469 -8.75 C 1.355469 -3.5 5.25 0.351562 11.109375 0.351562 Z M 11.109375 -4.59375 C 8.703125 -4.636719 6.957031 -6.386719 6.957031 -8.75 C 6.957031 -11.109375 8.703125 -12.859375 11.109375 -12.90625 C 13.472656 -12.859375 15.265625 -11.109375 15.265625 -8.75 C 15.265625 -6.386719 13.472656 -4.636719 11.109375 -4.59375 Z M 11.109375 -4.59375 "/></g></g></g><g fill="#2b4c9a" fill-opacity="1"><g transform="translate(216.369715, 245.528377)"><g><path d="M 18.589844 -21.171875 L 18.589844 -26.246094 L 2.800781 -26.246094 L 2.800781 0 L 8.574219 0 L 8.574219 -10.585938 L 17.148438 -10.585938 L 17.148438 -15.660156 L 8.574219 -15.660156 L 8.574219 -21.171875 Z M 18.589844 -21.171875 "/></g></g></g><g fill="#2b4c9a" fill-opacity="1"><g transform="translate(234.696705, 245.528377)"><g><path d="M 5.46875 -20.429688 C 7.128906 -20.429688 8.53125 -21.828125 8.53125 -23.492188 C 8.53125 -25.195312 7.128906 -26.550781 5.46875 -26.550781 C 3.804688 -26.550781 2.40625 -25.195312 2.40625 -23.492188 C 2.40625 -21.828125 3.804688 -20.429688 5.46875 -20.429688 Z M 2.667969 0 L 8.222656 0 L 8.222656 -17.496094 L 2.667969 -17.496094 Z M 2.667969 0 "/></g></g></g><g fill="#2b4c9a" fill-opacity="1"><g transform="translate(244.931763, 245.528377)"><g><path d="M 13.167969 -17.847656 C 11.15625 -17.847656 9.40625 -16.886719 8.179688 -15.355469 L 8.179688 -17.496094 L 2.582031 -17.496094 L 2.582031 0 L 8.179688 0 L 8.179688 -10.148438 C 8.179688 -11.722656 9.492188 -12.90625 11.109375 -12.90625 C 12.730469 -12.90625 13.867188 -11.722656 13.867188 -10.148438 L 13.867188 0 L 19.421875 0 L 19.421875 -11.066406 C 19.421875 -14.917969 16.621094 -17.847656 13.167969 -17.847656 Z M 13.167969 -17.847656 "/></g></g></g><g fill="#2b4c9a" fill-opacity="1"><g transform="translate(265.883169, 245.528377)"><g><path d="M 15.003906 -29.964844 L 15.003906 -15.964844 C 13.691406 -17.148438 12.03125 -17.847656 10.015625 -17.847656 C 5.160156 -17.847656 1.355469 -13.824219 1.355469 -8.75 C 1.355469 -3.675781 5.160156 0.351562 10.015625 0.351562 C 12.03125 0.351562 13.691406 -0.351562 15.003906 -1.53125 L 15.003906 0.0429688 L 20.558594 0 L 20.558594 -29.964844 Z M 11.109375 -4.59375 C 8.792969 -4.59375 6.957031 -6.429688 6.957031 -8.75 C 6.957031 -11.066406 8.792969 -12.90625 11.109375 -12.90625 C 13.386719 -12.90625 15.265625 -11.066406 15.265625 -8.75 C 15.265625 -6.429688 13.386719 -4.59375 11.109375 -4.59375 Z M 11.109375 -4.59375 "/></g></g></g></svg>