<?xml version="1.0" encoding="UTF-8"?>
<svg xmlns="http://www.w3.org/2000/svg"
     viewBox="0 0 2000 1000"
     width="2000" height="1000"
     role="img"
     aria-hidden="true"
     preserveAspectRatio="xMidYMid meet">
  <title>World map silhouette</title>
  <g fill="#ffffff" fill-rule="evenodd" stroke="none" stroke-width="0">
    <!-- North America -->
    <path d="M220 210c18-6 36-10 56-12 24-2 48 2 72 6 18 3 36 8 52 16 14 7 26 18 38 30 10 10 18 22 26 34 8 12 14 26 18 40 6 22 6 44 4 66-3 28-12 54-28 78-14 20-34 36-56 48-22 12-46 20-70 26-28 7-56 10-84 8-18-1-36-4-52-10-18-7-34-18-48-32-12-12-22-26-30-40-8-16-12-34-14-52-2-18 0-36 6-54 6-18 16-34 28-48 12-14 26-26 42-36z"/>
    <!-- South America -->
    <path d="M420 520c10 6 22 8 34 10 18 3 36 2 54-2 18-4 34-10 50-18 14-7 28-16 40-26 12-10 22-22 30-36 8-14 12-30 12-46 0-12-2-24-6-36-6-18-16-34-30-46-12-10-26-18-40-24-18-8-36-12-54-12-18 0-36 4-52 12-14 8-26 18-36 30-12 14-20 30-26 46-6 18-8 36-6 54 2 18 8 34 18 48 8 12 18 22 30 30z"/>
    <!-- Europe -->
    <path d="M820 160c10-2 20-2 30 0 12 2 24 6 34 12 10 6 18 14 26 22 8 8 14 18 18 28 6 12 8 24 8 36 0 12-2 24-6 36-6 14-14 26-24 36-10 10-22 18-34 24-12 6-24 10-36 12-12 2-24 2-36 0-12-2-24-6-34-12-10-6-18-14-26-24-8-10-14-22-18-34-4-12-6-24-6-36 0-12 2-24 6-36 6-14 14-26 24-36 10-10 22-18 34-24z"/>
    <!-- Africa -->
    <path d="M920 300c12 2 24 6 36 12 14 8 26 18 36 30 10 12 18 26 24 40 6 14 10 28 12 42 2 16 0 32-4 48-6 20-16 38-30 54-12 14-26 26-42 36-16 10-34 18-52 22-18 4-36 4-54 0-18-4-34-12-48-22-14-10-26-22-36-36-10-14-18-30-22-46-6-20-6-40-2-60 4-18 12-36 22-52 12-18 26-34 44-46 18-12 38-20 58-24 8-2 16-2 24 0z"/>
    <!-- Asia -->
    <path d="M1120 140c18 2 36 6 54 12 22 8 42 20 60 34 18 14 34 30 48 48 12 16 22 34 30 52 8 18 14 36 18 54 6 24 8 48 6 72-2 22-8 44-18 64-10 20-24 38-40 54-16 16-34 30-54 40-20 10-42 18-64 22-22 4-44 4-66 0-20-4-40-12-58-22-18-10-34-22-48-36-14-14-26-30-36-48-10-18-18-36-22-56-4-18-4-36-2-54 2-18 8-36 16-52 10-20 24-38 40-54 18-18 38-34 60-46 18-10 36-18 56-22 8-2 16-2 24 0z"/>
    <!-- Australia -->
    <path d="M1560 560c10 2 20 6 30 12 12 8 22 18 30 30 8 12 12 26 12 40 0 12-4 24-10 34-8 12-18 22-30 30-12 8-26 14-40 16-12 2-24 0-36-4-12-4-22-10-32-18-10-8-18-18-24-30-6-12-8-24-6-36 2-12 8-24 16-34 10-12 22-22 36-30 12-6 24-10 36-12z"/>
    <!-- Greenland / Arctic islands -->
    <path d="M420 80c10 4 22 6 34 6 12 0 24-2 36-6 12-4 24-10 34-18 10-8 18-18 24-28 6-10 8-22 6-34-2-12-8-22-18-30-10-8-22-12-34-12-12 0-24 4-36 10-12 6-22 14-30 24-8 10-14 22-18 34-4 12-4 24 0 36 4 12 10 22 18 30z"/>
  </g>
</svg>
