<?xml version="1.0" standalone="no"?>
<!DOCTYPE svg PUBLIC "-//W3C//DTD SVG 20010904//EN"
 "http://www.w3.org/TR/2001/REC-SVG-20010904/DTD/svg10.dtd">
<svg version="1.0" xmlns="http://www.w3.org/2000/svg"
 width="512.000000pt" height="512.000000pt" viewBox="0 0 512.000000 512.000000"
 preserveAspectRatio="xMidYMid meet">
<metadata>
Created by potrace 1.14, written by Peter Selinger 2001-2017
</metadata>
<g transform="translate(0.000000,512.000000) scale(0.100000,-0.100000)"
fill="#000000" stroke="none">
<path d="M2335 5075 c-128 -16 -279 -42 -350 -60 -257 -68 -521 -239 -728
-472 -74 -84 -177 -223 -177 -239 0 -4 -6 -15 -14 -23 -26 -30 -136 -260 -136
-284 0 -7 -4 -17 -10 -23 -17 -17 -78 -247 -96 -364 -22 -139 -25 -435 -5
-555 45 -287 154 -627 299 -935 21 -47 54 -116 72 -155 88 -186 325 -596 505
-871 244 -372 581 -831 676 -918 94 -87 251 -153 275 -115 3 6 -7 25 -24 42
-16 18 -83 100 -149 182 -731 918 -1258 1857 -1417 2525 -41 170 -56 297 -56
471 0 515 185 967 541 1319 138 137 259 223 444 315 168 83 259 116 420 150
122 26 97 30 -70 10z"/>
<path d="M2855 4848 c-2 -7 -8 -69 -14 -138 -6 -69 -14 -152 -17 -186 l-7 -61
62 -7 c199 -20 178 -22 184 10 3 16 3 31 1 34 -3 2 -39 7 -80 11 -42 4 -78 10
-81 12 -2 3 0 47 6 99 5 51 13 126 17 166 l6 72 -36 0 c-21 0 -38 -6 -41 -12z"/>
<path d="M2523 4830 c-14 -6 -24 -20 -27 -42 -11 -65 -56 -366 -56 -372 0 -9
53 -7 66 2 7 4 15 32 19 63 l7 56 59 9 c66 11 65 12 98 -54 21 -41 24 -43 54
-37 18 4 34 9 37 12 3 3 -38 88 -90 189 -85 167 -96 184 -120 183 -14 0 -35
-4 -47 -9z m75 -146 c18 -37 31 -68 30 -70 -2 -2 -23 -6 -47 -10 l-44 -7 6 54
c4 30 7 64 7 77 0 38 14 25 48 -44z"/>
<path d="M2195 4737 c-132 -54 -150 -69 -127 -105 7 -10 19 -9 61 8 l52 20 18
-43 c10 -23 38 -93 62 -155 44 -113 44 -113 74 -107 16 3 33 9 37 13 4 4 -19
74 -52 155 -33 80 -60 151 -60 157 0 6 17 18 38 27 56 23 63 31 50 59 -6 13
-14 24 -17 24 -3 -1 -64 -25 -136 -53z"/>
<path d="M3345 4738 c-7 -18 -43 -100 -79 -183 -36 -82 -66 -153 -66 -157 0
-10 63 -29 70 -21 4 5 19 37 35 73 15 36 29 67 31 69 2 2 33 -9 69 -24 36 -16
67 -26 69 -24 3 2 7 16 11 30 6 24 2 28 -49 49 -31 12 -59 27 -62 32 -6 9 23
98 31 98 2 0 34 -14 71 -31 64 -28 69 -29 81 -13 23 31 15 41 -59 74 -151 68
-137 65 -153 28z"/>
<path d="M1939 4603 c-13 -9 -26 -18 -28 -19 -3 -3 72 -127 176 -292 l34 -53
29 18 c17 9 30 21 30 26 0 10 -199 325 -209 332 -4 2 -19 -3 -32 -12z"/>
<path d="M3576 4440 c-58 -88 -106 -164 -106 -169 0 -8 44 -41 55 -41 8 0 215
315 215 328 0 11 -38 42 -51 42 -4 0 -55 -72 -113 -160z"/>
<path d="M3727 4342 c-75 -75 -137 -142 -137 -148 0 -6 9 -19 20 -29 21 -19
22 -17 127 86 58 57 103 95 99 84 -17 -48 -76 -282 -76 -301 0 -11 10 -30 23
-42 l23 -21 142 137 c78 75 142 142 142 148 0 6 -9 19 -20 29 -18 17 -21 16
-59 -14 -22 -18 -66 -61 -97 -97 -31 -35 -59 -63 -61 -61 -2 2 15 73 38 156
l41 153 -28 29 c-15 16 -30 29 -34 29 -3 0 -67 -62 -143 -138z"/>
<path d="M1719 4440 c-42 -27 -84 -68 -103 -98 -5 -8 29 -52 101 -130 60 -64
121 -130 136 -147 l26 -29 26 24 c14 13 25 26 25 29 0 4 -12 20 -27 36 -14 17
-35 40 -47 53 l-20 22 31 33 c41 43 53 69 53 112 0 111 -104 160 -201 95z
m111 -60 c28 -28 25 -72 -6 -104 -15 -14 -30 -26 -34 -26 -4 0 -26 22 -48 49
l-42 49 31 26 c37 31 72 33 99 6z"/>
<path d="M2748 4355 c-3 -3 -40 -9 -84 -15 -115 -13 -173 -25 -186 -38 -7 -7
-25 -12 -41 -12 -19 0 -26 -4 -21 -12 5 -8 2 -9 -9 -5 -19 7 -33 -9 -15 -17 7
-3 -1 -3 -18 0 -20 3 -38 -1 -55 -14 -13 -10 -43 -24 -66 -30 -23 -7 -45 -18
-49 -24 -5 -7 -3 -8 6 -3 9 5 11 4 6 -3 -4 -7 -16 -12 -26 -12 -24 0 -36 -18
-21 -33 16 -16 14 -37 -3 -37 -8 0 -18 -5 -22 -12 -4 -7 -3 -8 4 -4 7 4 12 3
12 -2 0 -14 29 -10 34 5 3 7 15 13 26 13 24 0 26 22 5 40 -12 10 -13 16 -4 26
15 19 39 18 39 -2 0 -8 -4 -12 -10 -9 -5 3 -10 -1 -10 -10 0 -9 4 -14 8 -11 5
3 22 1 38 -4 24 -7 25 -8 7 -9 -13 -1 -23 -5 -23 -11 0 -13 -56 -41 -64 -33
-4 4 -9 -3 -13 -15 -3 -12 -12 -22 -20 -22 -8 0 -11 -4 -8 -10 6 -9 -21 -19
-62 -23 -12 0 -20 -4 -17 -8 2 -4 14 -6 25 -4 21 4 21 4 4 -15 -10 -11 -22
-17 -27 -14 -4 3 -7 0 -6 -7 2 -6 -3 -14 -11 -17 -9 -3 -11 0 -6 8 5 8 4 11
-3 6 -6 -4 -8 -14 -5 -23 5 -12 3 -14 -7 -8 -8 5 -11 4 -7 -2 8 -13 -78 -95
-88 -85 -5 4 -5 2 -1 -5 3 -6 -4 -22 -16 -34 -13 -12 -16 -18 -8 -14 13 7 -11
-28 -31 -45 -3 -3 -26 -48 -52 -100 -160 -329 -151 -718 25 -1014 160 -271
382 -439 685 -517 74 -19 113 -23 248 -23 168 0 263 16 381 63 l51 20 -5 -142
c-3 -78 -8 -144 -12 -147 -10 -8 -21 -42 -10 -35 5 3 6 -10 3 -32 -3 -21 -10
-39 -15 -41 -4 -2 -8 -19 -8 -37 0 -19 -4 -37 -10 -40 -5 -3 -10 -14 -10 -24
0 -10 -7 -24 -15 -31 -8 -7 -15 -23 -15 -36 0 -12 -7 -30 -16 -39 -16 -15 -18
-14 -34 9 -9 15 -19 23 -22 20 -4 -3 3 -16 14 -29 24 -28 21 -40 -11 -40 -13
0 -27 -7 -29 -15 -4 -13 -3 -13 10 -2 13 10 18 10 24 1 5 -8 3 -9 -6 -4 -10 6
-12 4 -7 -7 3 -10 -3 -24 -14 -34 -19 -17 -20 -17 -13 1 6 14 4 17 -8 13 -17
-7 -21 20 -6 38 6 8 3 11 -9 10 -13 -1 -18 7 -18 27 -1 16 -5 31 -10 35 -13 9
-45 71 -45 86 0 7 -13 32 -30 54 -16 23 -30 43 -30 46 0 2 -21 27 -47 56 -27
28 -48 57 -48 63 0 6 -12 17 -26 26 -15 9 -53 36 -85 61 -58 44 -130 76 -195
87 -48 7 -148 -25 -179 -57 -40 -42 -81 -114 -95 -167 -16 -68 -14 -181 5
-193 7 -4 9 -13 6 -19 -4 -6 -2 -11 3 -11 6 0 11 -4 11 -10 0 -5 -9 -10 -21
-10 -13 0 -18 4 -13 12 4 7 3 8 -4 4 -7 -4 -12 -14 -12 -22 0 -8 -7 -17 -15
-20 -8 -4 -15 -12 -15 -20 0 -8 -5 -23 -12 -33 -11 -18 -13 -18 -23 -4 -10 13
-14 13 -20 3 -5 -8 -4 -11 3 -6 7 4 10 -2 8 -16 -7 -45 -18 -67 -32 -61 -9 3
-14 -2 -14 -16 0 -12 -4 -21 -9 -21 -5 0 -12 -12 -14 -27 -3 -24 -4 -23 -6 7
-1 19 -5 40 -9 45 -10 14 -42 18 -42 5 0 -8 -16 -10 -42 -8 -38 3 -43 0 -46
-19 -2 -13 -7 -23 -12 -23 -13 0 -23 38 -14 52 4 7 4 10 -1 6 -14 -13 -45 12
-60 48 -8 20 -26 50 -40 67 -40 51 -41 51 -48 67 -4 8 -18 33 -32 55 -13 22
-34 58 -46 80 -12 22 -32 53 -45 68 -14 16 -36 52 -50 80 -75 154 -85 169 -99
150 -12 -16 -13 -15 -8 10 3 15 -2 42 -11 61 -9 19 -16 39 -16 45 0 6 -7 8
-15 4 -9 -3 -15 -15 -13 -27 2 -13 -2 -21 -12 -21 -10 0 -15 9 -14 28 1 25 -1
27 -13 14 -12 -12 -9 -25 23 -98 37 -85 63 -127 49 -79 -7 24 -7 24 8 5 11
-14 12 -22 4 -27 -8 -5 -8 -14 1 -33 13 -29 32 -25 32 6 0 10 4 19 10 19 5 0
9 -11 8 -24 -1 -14 -5 -23 -9 -20 -4 2 -10 0 -14 -5 -7 -12 61 -151 75 -151 5
0 7 -7 4 -15 -4 -8 -1 -15 5 -15 6 0 11 -9 11 -20 0 -11 4 -20 8 -20 5 0 14
-16 22 -35 8 -19 17 -35 22 -35 4 0 8 -7 8 -15 0 -8 3 -15 8 -15 4 0 15 -17
25 -38 9 -20 21 -44 27 -52 5 -8 51 -82 101 -165 109 -177 170 -269 181 -273
4 -2 8 -9 8 -15 0 -7 11 -25 25 -41 14 -16 25 -33 25 -37 0 -4 6 -14 13 -21 6
-7 36 -49 66 -93 81 -119 297 -408 413 -551 57 -70 115 -142 130 -161 40 -52
85 -81 135 -89 79 -12 147 29 230 138 15 20 89 113 164 205 180 223 579 781
579 810 0 5 8 18 18 29 27 29 221 353 288 480 31 60 64 117 72 126 7 9 11 21
8 27 -3 5 -2 11 3 13 5 1 18 21 30 42 l20 40 -29 14 c-17 8 -30 21 -30 28 0
21 18 17 25 -6 3 -11 15 -20 26 -20 18 0 23 10 20 39 -2 8 2 10 10 5 9 -5 11
-1 7 14 -4 15 -2 22 8 22 8 0 11 6 7 16 -3 9 3 23 16 35 11 11 21 27 21 37 0
9 7 26 15 36 8 11 15 25 15 30 0 6 -8 -1 -18 -17 -10 -15 -22 -24 -25 -20 -4
3 -7 1 -7 -7 0 -9 -4 -9 -13 -2 -8 7 -18 6 -31 -4 -17 -12 -17 -14 -3 -20 18
-7 24 -34 7 -34 -5 0 -10 7 -10 15 0 8 -4 15 -8 15 -15 0 -32 -24 -32 -44 0
-17 2 -18 10 -6 13 19 27 0 25 -33 -1 -16 -8 -22 -27 -23 -41 -2 -58 -12 -58
-34 0 -11 -4 -20 -10 -20 -5 0 -10 -9 -10 -20 0 -11 -4 -20 -8 -20 -5 0 -19
-23 -32 -50 -13 -28 -27 -50 -31 -50 -4 0 -13 -15 -19 -34 -6 -19 -17 -36 -24
-39 -6 -3 -18 -23 -25 -45 -8 -23 -20 -43 -27 -46 -8 -3 -14 -11 -14 -17 0 -7
-12 -28 -27 -48 -27 -35 -38 -52 -72 -116 -30 -55 -51 -80 -59 -69 -4 5 -23 9
-42 7 -19 -2 -124 -6 -232 -9 -144 -5 -198 -3 -198 5 0 6 -5 11 -11 11 -16 0
-39 -26 -39 -45 0 -22 -34 -15 -38 8 -2 9 2 17 8 17 6 0 18 7 27 15 14 14 13
15 -10 10 -25 -7 -46 8 -27 20 6 4 7 12 3 18 -4 7 0 6 10 -2 15 -12 17 -10 17
18 0 24 4 31 19 31 10 0 22 7 25 16 8 21 8 24 -3 22 -5 -2 -9 0 -10 5 -3 21 0
27 11 21 7 -4 8 -3 4 5 -4 6 0 25 8 43 9 17 16 39 16 49 0 10 5 21 11 24 6 4
8 13 5 21 -3 8 -2 14 2 14 8 0 9 11 18 257 l6 182 -55 0 c-95 0 -157 52 -157
133 0 34 -5 41 -57 77 -286 196 -428 423 -408 654 l7 78 -83 -3 -84 -3 -3
-257 -2 -258 -125 0 -125 0 0 640 0 640 125 0 125 0 2 -257 3 -258 149 -3 148
-3 54 58 c29 32 53 66 54 76 0 11 15 34 34 53 29 29 41 34 79 34 30 0 53 -7
70 -21 l26 -20 3 158 3 158 110 0 110 0 3 -627 2 -628 -115 0 -115 0 0 260 0
260 -135 0 c-96 0 -135 3 -135 12 0 17 67 135 101 178 29 35 36 39 98 45 l68
7 1 65 c1 59 -1 68 -28 94 -30 31 -83 39 -121 19 -29 -16 -52 -68 -46 -106 4
-23 2 -32 -6 -29 -16 6 -83 -82 -123 -163 -93 -184 -81 -368 35 -545 47 -71
202 -228 273 -276 31 -22 36 -31 40 -73 15 -147 212 -172 264 -33 l15 40 -5
-58 c-4 -44 -2 -56 7 -50 150 112 244 212 331 353 51 82 94 176 88 194 -1 4 1
13 7 20 45 56 63 419 28 564 -33 137 -81 252 -144 346 -18 26 -30 53 -26 60 3
6 3 8 -2 4 -12 -11 -35 11 -29 27 3 7 0 16 -7 21 -8 5 -10 3 -4 -7 5 -8 -1 -5
-13 5 -12 11 -20 21 -17 24 6 6 -35 42 -48 42 -5 0 -4 7 3 15 7 9 10 18 6 22
-3 3 -6 1 -6 -5 0 -7 -5 -12 -11 -12 -5 0 -7 5 -4 10 3 6 3 10 -2 10 -4 0 -21
11 -38 25 -19 16 -23 23 -11 18 13 -4 17 -3 12 5 -4 7 -17 12 -30 12 -12 0
-31 7 -42 15 -19 15 -19 15 1 9 19 -5 19 -5 2 9 -23 19 -18 53 6 49 9 -2 17 1
17 6 0 10 -31 39 -37 35 -1 -2 -6 -3 -10 -3 -5 0 -1 5 7 10 11 7 12 12 3 21
-9 9 -17 5 -36 -15 -27 -29 -37 -32 -37 -12 0 7 10 21 23 29 18 14 20 18 7 26
-8 5 -17 8 -21 5 -4 -2 -12 3 -19 11 -7 8 -19 15 -27 15 -8 0 -26 9 -39 19
-14 11 -33 17 -47 14 -16 -3 -18 -2 -8 5 10 8 6 11 -18 17 -17 3 -33 11 -36
16 -4 5 -19 9 -34 9 -15 0 -41 6 -57 14 -48 24 -320 57 -336 41z m186 -104 c3
-5 -5 -11 -19 -13 -20 -4 -23 -3 -14 8 13 16 25 18 33 5z m198 -18 c-21 -8 -3
-23 31 -24 24 -1 26 -3 10 -6 -13 -2 -23 -9 -23 -14 0 -5 -5 -9 -11 -9 -5 0
-8 4 -5 9 3 5 -1 11 -9 15 -21 8 -19 36 3 35 10 0 12 -3 4 -6z m98 -8 c0 -8
-4 -15 -10 -15 -5 0 -7 7 -4 15 4 8 8 15 10 15 2 0 4 -7 4 -15z m-765 -15 c3
-5 -3 -10 -14 -10 -11 0 -23 5 -26 10 -3 6 3 10 14 10 11 0 23 -4 26 -10z
m635 0 c0 -5 -7 -7 -15 -4 -8 4 -15 8 -15 10 0 2 7 4 15 4 8 0 15 -4 15 -10z
m223 -49 c4 0 7 -6 7 -13 0 -9 -3 -9 -12 0 -7 7 -17 12 -22 12 -6 0 -4 -4 4
-10 8 -5 11 -12 7 -16 -4 -4 -14 1 -22 12 -10 13 -14 15 -15 5 0 -8 -3 -12 -6
-8 -17 17 12 26 59 18z m-979 -26 c-4 -8 -11 -12 -16 -9 -6 4 -5 10 3 15 19
12 19 11 13 -6z m1036 -45 c0 -5 -4 -10 -10 -10 -5 0 -10 5 -10 10 0 6 5 10
10 10 6 0 10 -4 10 -10z m40 -25 c0 -8 -4 -15 -10 -15 -5 0 -10 7 -10 15 0 8
5 15 10 15 6 0 10 -7 10 -15z m105 -559 c38 -16 65 -60 64 -103 l-1 -28 -8 29
c-15 50 -48 76 -95 76 -81 0 -125 -69 -90 -141 l16 -34 -21 24 c-25 29 -27
106 -4 140 16 22 66 50 92 51 7 0 28 -6 47 -14z m9 -245 c78 -72 163 -211 187
-304 15 -60 7 -141 -20 -201 -24 -56 -107 -146 -181 -196 -60 -40 -153 -90
-170 -90 -25 0 -5 19 58 55 88 51 195 158 227 226 63 136 10 307 -153 489
l-50 56 37 -4 c21 -3 48 -15 65 -31z m-2114 -1150 c0 -13 -31 -43 -38 -37 -3
3 3 15 13 26 20 22 25 24 25 11z m10 -45 c0 -2 -9 -6 -20 -9 -11 -3 -18 -1
-14 4 5 9 34 13 34 5z m1079 -82 c17 -4 28 -11 24 -17 -3 -6 -1 -7 5 -3 12 7
112 -50 112 -65 0 -5 6 -9 14 -9 22 0 96 -89 89 -108 -4 -13 -3 -14 5 -3 8 11
14 8 28 -15 10 -16 22 -32 27 -35 4 -3 9 -15 10 -27 0 -12 3 -19 6 -17 2 3 10
-3 17 -13 8 -12 9 -22 2 -35 -5 -10 -7 -21 -4 -25 3 -3 6 0 6 6 0 7 5 12 11
12 6 0 9 -6 7 -12 -4 -12 2 -23 28 -51 9 -9 8 -19 -3 -40 -15 -30 -5 -57 21
-57 6 0 3 7 -7 14 -17 13 -14 46 5 46 5 0 6 -5 3 -10 -4 -6 0 -22 9 -35 21
-32 20 -38 -5 -53 -12 -8 -19 -9 -16 -4 4 5 -18 5 -51 1 -35 -5 -59 -4 -63 2
-4 7 -22 6 -53 -2 -32 -8 -118 -10 -271 -7 -124 2 -225 1 -225 -3 0 -4 -10 -9
-22 -13 -19 -5 -20 -8 -8 -15 8 -6 11 -14 6 -18 -5 -4 -11 -2 -13 5 -3 6 -9
10 -14 6 -5 -3 -2 -12 7 -21 9 -9 13 -25 10 -37 -3 -11 1 -27 9 -36 11 -13 11
-18 -6 -39 -11 -13 -23 -21 -26 -17 -4 4 -2 11 6 15 10 6 9 12 -4 25 -10 10
-12 16 -4 16 14 0 4 61 -12 70 -12 8 43 70 62 70 10 0 10 3 1 12 -17 17 -15
29 3 22 8 -4 15 -1 15 4 0 16 -18 24 -25 12 -3 -5 -10 -10 -16 -10 -5 0 -4 9
3 20 9 13 19 18 33 14 11 -3 15 -2 10 3 -14 10 -13 29 1 43 8 8 14 7 24 -5 8
-10 9 -15 1 -15 -17 0 -13 -14 9 -40 22 -25 26 -20 9 12 -11 20 -11 20 14 2
16 -12 21 -22 14 -26 -6 -4 7 -5 28 -3 22 1 43 -2 47 -9 6 -8 8 -7 8 2 0 19
30 14 30 -5 1 -16 2 -15 12 2 6 11 16 23 22 27 7 5 6 8 -3 8 -11 0 -11 4 2 18
25 28 21 84 -8 118 -13 15 -27 25 -31 21 -4 -4 -13 1 -21 11 -8 9 -11 11 -8 4
5 -10 0 -13 -16 -12 -56 5 -69 0 -69 -22 -1 -21 -2 -21 -11 -5 -6 10 -8 25 -5
33 3 8 2 12 -4 9 -14 -9 -32 70 -25 113 7 40 25 94 35 102 3 3 13 17 23 33 10
15 24 27 33 27 8 0 13 4 10 9 -13 21 73 37 133 25z m1624 -80 c-7 -19 -31 -25
-36 -9 -7 17 -3 21 21 21 11 0 18 -5 15 -12z m-1749 -329 c25 -19 9 -19 -24 0
-14 8 -19 14 -10 14 8 0 24 -6 34 -14z m-188 -140 c-9 -9 -16 -13 -16 -8 0 12
22 34 28 28 2 -2 -3 -11 -12 -20z m614 -46 c0 -3 -9 -16 -20 -29 -17 -19 -20
-20 -20 -6 0 10 -7 24 -15 33 -8 8 -13 18 -10 23 5 9 65 -10 65 -21z m120 10
c0 -7 -28 -32 -49 -44 -9 -5 -12 -4 -7 3 4 8 0 12 -11 12 -17 1 -17 1 0 14 18
14 18 14 0 18 -10 3 1 4 25 4 23 0 42 -3 42 -7z m230 -4 c-14 -17 -30 -20 -30
-4 0 5 5 7 10 4 6 -3 10 -1 10 4 0 6 5 11 11 11 8 0 8 -5 -1 -15z m-200 -5 c0
-5 -5 -10 -11 -10 -5 0 -7 5 -4 10 3 6 8 10 11 10 2 0 4 -4 4 -10z m111 -17
c13 -16 12 -17 -3 -4 -17 13 -22 21 -14 21 2 0 10 -8 17 -17z m-1151 -39 c0
-24 -17 -15 -22 11 -4 20 -3 23 8 14 8 -6 14 -18 14 -25z m1234 11 c-3 -13 -1
-26 5 -30 8 -4 7 -11 -3 -21 -19 -18 -28 -18 -52 2 -19 15 -18 15 4 11 19 -4
22 -1 22 23 0 16 -6 30 -12 33 -7 2 -1 4 14 4 24 0 27 -3 22 -22z m-492 -1
c-12 -8 -22 -22 -22 -30 0 -9 -11 -14 -30 -14 -26 0 -29 3 -22 17 5 9 25 22
43 28 48 18 57 17 31 -1z m113 -43 c-3 -2 -13 5 -23 17 -14 16 -22 18 -30 10
-7 -7 -12 -8 -12 -2 0 6 5 15 12 22 9 9 17 5 34 -15 13 -15 21 -29 19 -32z
m81 41 c-3 -5 -17 -12 -30 -14 -18 -4 -23 -1 -19 9 3 8 14 13 24 10 11 -3 19
0 19 6 0 6 3 8 6 4 3 -3 3 -10 0 -15z m232 -23 c-7 -5 -14 -4 -16 1 -2 6 -8 8
-13 4 -5 -3 -9 0 -9 6 0 6 10 14 23 19 16 6 23 5 25 -7 2 -8 -2 -18 -10 -23z
m122 22 c0 -10 7 -21 15 -25 8 -3 15 -12 15 -21 0 -8 -7 -15 -15 -15 -8 0 -15
8 -15 19 0 10 -7 24 -15 31 -8 7 -15 16 -15 21 0 5 7 9 15 9 8 0 15 -9 15 -19z
m490 -1 c0 -5 -4 -10 -10 -10 -5 0 -10 5 -10 10 0 6 5 10 10 10 6 0 10 -4 10
-10z m-1540 -32 c0 -23 -3 -29 -11 -21 -6 6 -8 20 -4 32 9 30 15 26 15 -11z
m-160 -13 c0 -8 -4 -15 -10 -15 -5 0 -10 7 -10 15 0 8 5 15 10 15 6 0 10 -7
10 -15z m753 -5 c3 -11 0 -23 -5 -27 -7 -3 -8 -1 -4 5 4 7 2 12 -3 12 -6 0
-11 -7 -11 -16 0 -8 -5 -12 -11 -8 -6 3 -15 0 -20 -7 -6 -10 -9 -10 -9 -2 0 8
-7 10 -17 6 -16 -6 -16 -5 -4 10 8 10 9 17 3 17 -6 0 -13 -4 -17 -10 -3 -5
-12 -7 -19 -4 -7 3 -16 -2 -19 -10 -7 -17 -57 -22 -57 -6 0 6 6 10 14 10 7 0
27 7 42 15 37 19 63 19 70 0 8 -19 44 -2 44 20 0 22 17 18 23 -5z m-273 1 c0
-6 -36 -10 -80 -10 -44 0 -80 4 -80 9 0 6 36 10 80 10 44 0 80 -4 80 -9z
m1120 -3 c0 -9 3 -9 9 1 6 9 15 11 27 6 17 -7 17 -8 -4 -14 -36 -10 -362 -1
-362 9 0 6 67 10 165 10 125 0 165 -3 165 -12z m-680 -26 c0 -21 -46 -47 -55
-31 -4 5 -3 9 2 8 21 -4 32 3 38 21 8 25 15 26 15 2z m56 0 c1 -7 0 -8 -2 -3
-3 6 -12 7 -20 4 -8 -3 -14 0 -14 7 0 15 33 9 36 -8z m-962 0 c3 -5 -1 -9 -9
-9 -8 0 -12 4 -9 9 3 4 7 8 9 8 2 0 6 -4 9 -8z m463 -8 c-3 -3 -12 -4 -19 -1
-8 3 -5 6 6 6 11 1 17 -2 13 -5z m623 2 c0 -2 -7 -6 -15 -10 -8 -3 -15 -1 -15
4 0 6 7 10 15 10 8 0 15 -2 15 -4z m-865 -46 c-2 -31 -15 -37 -15 -7 0 15 4
27 8 27 5 0 8 -9 7 -20z m745 1 c-6 -12 -6 -21 0 -23 6 -2 6 -8 0 -18 -8 -13
-10 -12 -10 3 0 11 -8 17 -22 18 -21 1 -21 2 -3 6 11 3 24 11 28 19 12 21 19
17 7 -5z m170 0 c0 -30 -11 -51 -25 -51 -9 0 -12 10 -10 28 2 15 4 30 4 35 2
17 31 5 31 -12z m-540 -1 c0 -12 -8 -12 -35 0 -18 8 -17 9 8 9 15 1 27 -3 27
-9z m-300 -20 c0 -5 -4 -10 -10 -10 -5 0 -10 5 -10 10 0 6 5 10 10 10 6 0 10
-4 10 -10z m560 -14 c0 -3 -4 -8 -10 -11 -5 -3 -10 -1 -10 4 0 6 5 11 10 11 6
0 10 -2 10 -4z m-580 -20 c-4 -4 -16 -4 -26 2 -16 9 -14 10 8 9 15 -1 23 -6
18 -11z m195 4 c-3 -5 -14 -10 -23 -9 -14 0 -13 2 3 9 27 11 27 11 20 0z
m-391 -30 c-6 -6 -10 -2 -11 12 -2 16 1 18 10 9 7 -7 8 -14 1 -21z m641 20 c3
-5 1 -10 -4 -10 -6 0 -11 5 -11 10 0 6 2 10 4 10 3 0 8 -4 11 -10z m-620 -50
c3 -5 1 -10 -4 -10 -6 0 -11 5 -11 10 0 6 2 10 4 10 3 0 8 -4 11 -10z m539 -5
c3 -8 1 -15 -3 -15 -5 0 -11 7 -15 15 -3 8 -1 15 3 15 5 0 11 -7 15 -15z
m-491 -22 c-5 -12 -3 -14 7 -8 8 5 11 4 6 -3 -7 -12 -36 -5 -36 8 0 7 7 12 27
19 1 1 -1 -6 -4 -16z m422 7 c-3 -5 -2 -10 3 -10 6 0 13 -8 16 -17 6 -15 4
-15 -14 2 -22 20 -26 35 -9 35 5 0 7 -4 4 -10z m-350 -20 c-3 -5 1 -11 7 -13
7 -3 9 -6 3 -6 -5 0 -21 8 -34 18 l-25 19 27 -5 c15 -3 25 -9 22 -13z m298 3
c-7 -2 -19 -2 -25 0 -7 3 -2 5 12 5 14 0 19 -2 13 -5z m-358 -33 c3 -5 1 -10
-4 -10 -6 0 -11 5 -11 10 0 6 2 10 4 10 3 0 8 -4 11 -10z m95 -24 c0 -2 -9 -6
-20 -9 -11 -3 -18 -1 -14 4 5 9 34 13 34 5z m650 -176 c0 -5 -2 -10 -4 -10 -3
0 -8 5 -11 10 -3 6 -1 10 4 10 6 0 11 -4 11 -10z m-575 -50 c3 -5 -1 -10 -9
-10 -9 0 -16 5 -16 10 0 6 4 10 9 10 6 0 13 -4 16 -10z m685 6 c0 -2 -7 -9
-15 -16 -13 -11 -14 -10 -9 4 5 14 24 23 24 12z m180 -10 c0 -3 -4 -8 -10 -11
-5 -3 -10 -1 -10 4 0 6 5 11 10 11 6 0 10 -2 10 -4z m-322 -39 c6 -7 10 -33 8
-58 -2 -24 -1 -46 3 -49 3 -3 14 -21 24 -40 21 -41 85 -90 119 -90 63 -1 49
-27 -103 -202 -63 -73 -161 -92 -233 -45 -28 19 -138 148 -234 276 -36 47 -68
88 -71 91 -9 7 -61 89 -61 95 0 4 5 3 10 0 6 -3 10 1 10 9 0 21 20 23 281 25
184 1 239 -2 247 -12z m98 -49 c-1 -34 5 -47 33 -75 26 -26 41 -33 73 -33 21
0 48 5 60 11 11 6 22 8 24 6 9 -9 -59 -37 -89 -37 -31 0 -101 45 -92 60 3 4
-1 10 -8 13 -15 5 -23 97 -9 97 4 0 8 -19 8 -42z m246 -3 c-8 -15 -10 -13 -14
14 -4 28 -3 30 10 18 10 -11 11 -20 4 -32z m-26 -53 c-17 -16 -18 -16 -5 5 7
12 15 20 18 17 3 -2 -3 -12 -13 -22z"/>
<path d="M1466 4158 c-47 -54 -61 -106 -43 -150 18 -42 45 -66 83 -73 28 -6
37 -2 157 62 25 13 30 13 52 -1 38 -25 32 -58 -20 -113 -42 -44 -44 -48 -28
-65 23 -26 38 -23 77 18 90 93 82 206 -17 243 -36 14 -68 6 -137 -36 -65 -39
-74 -40 -94 -12 -18 26 -7 61 31 100 21 23 23 30 14 48 -17 31 -35 26 -75 -21z"/>
<path d="M2123 4133 c-14 -5 -18 -33 -5 -33 5 0 16 6 26 13 15 11 16 15 5 19
-8 3 -20 3 -26 1z"/>
<path d="M3487 4103 c21 -21 40 -37 42 -36 2 2 11 -2 20 -8 9 -6 -6 9 -32 35
-27 25 -53 46 -59 46 -5 0 8 -17 29 -37z"/>
<path d="M4017 4016 c-87 -46 -162 -87 -167 -92 -12 -12 39 -117 81 -168 36
-43 98 -75 145 -76 51 0 123 30 164 69 49 46 66 105 50 169 -19 76 -80 183
-103 181 -7 -1 -83 -38 -170 -83z m189 -48 c39 -86 15 -149 -71 -189 -78 -36
-147 -14 -185 60 l-20 40 22 15 c28 17 221 115 229 115 3 1 14 -18 25 -41z"/>
<path d="M2076 4071 c-16 -18 -16 -18 9 -18 31 0 40 11 21 26 -10 8 -17 6 -30
-8z"/>
<path d="M3458 4083 c-31 -8 -20 -21 17 -20 27 1 32 4 23 14 -11 14 -12 14
-40 6z"/>
<path d="M3510 4039 c0 -5 5 -7 10 -4 6 3 10 8 10 11 0 2 -4 4 -10 4 -5 0 -10
-5 -10 -11z"/>
<path d="M2055 4030 c-3 -5 -1 -10 4 -10 6 0 11 5 11 10 0 6 -2 10 -4 10 -3 0
-8 -4 -11 -10z"/>
<path d="M3554 4016 c-10 -21 -9 -24 12 -22 12 0 20 4 17 9 -2 4 1 7 8 7 8 0
8 4 -1 15 -17 20 -23 19 -36 -9z"/>
<path d="M3585 3960 c3 -5 8 -10 11 -10 2 0 4 5 4 10 0 6 -5 10 -11 10 -5 0
-7 -4 -4 -10z"/>
<path d="M1322 3829 c-95 -47 -128 -183 -67 -270 73 -104 240 -133 324 -56 52
48 75 147 50 214 -40 106 -201 164 -307 112z m145 -74 c85 -25 129 -95 99
-154 -23 -43 -69 -65 -123 -57 -91 12 -153 64 -153 126 0 43 16 69 53 85 41
18 62 18 124 0z"/>
<path d="M4205 3626 c-210 -45 -205 -44 -205 -65 0 -10 9 -63 20 -116 11 -53
20 -99 20 -101 0 -8 59 -4 64 4 3 5 -1 35 -9 68 -23 97 -22 100 36 111 37 8
52 7 54 -1 2 -6 9 -38 17 -71 13 -58 14 -60 43 -57 16 2 31 5 33 6 1 2 -4 34
-12 72 -8 38 -12 72 -8 75 4 4 25 10 47 13 l41 7 14 -73 c14 -68 17 -73 43
-76 16 -2 29 2 32 10 2 7 -6 60 -18 118 -19 89 -25 105 -42 107 -11 0 -87 -13
-170 -31z"/>
<path d="M1150 3345 c0 -33 2 -35 34 -35 18 0 54 -3 80 -6 l46 -7 0 -78 0 -79
-77 2 -78 2 -3 -42 -3 -42 205 0 206 0 0 40 0 40 -85 0 -85 0 0 80 0 79 88 3
87 3 0 35 0 35 -207 3 -208 2 0 -35z"/>
<path d="M4040 3262 c0 -42 0 -42 38 -43 20 -1 44 -2 52 -3 8 -2 27 -3 43 -4
23 -2 27 -6 27 -32 0 -36 -27 -56 -87 -66 -24 -3 -49 -12 -57 -18 -17 -13 -28
-73 -16 -81 13 -8 128 22 163 43 l33 19 17 -23 c43 -57 143 -49 181 15 15 26
20 53 20 121 1 49 -1 91 -4 94 -3 2 -96 8 -208 12 l-202 7 0 -41z m348 -85 c5
-41 -22 -77 -58 -77 -36 0 -60 31 -60 78 l0 33 58 -3 c54 -3 57 -4 60 -31z"/>
<path d="M4296 2255 c-9 -26 -7 -32 5 -12 6 10 9 21 6 23 -2 3 -7 -2 -11 -11z"/>
<path d="M1336 2225 c7 -17 6 -18 -8 -7 -21 17 -35 -3 -17 -24 10 -12 14 -12
27 7 11 16 12 23 3 32 -9 9 -10 7 -5 -8z"/>
<path d="M4167 2073 c-10 -9 -9 -33 1 -33 4 0 8 9 8 20 0 23 0 22 -9 13z"/>
<path d="M3296 1617 c3 -10 9 -15 12 -12 3 3 0 11 -7 18 -10 9 -11 8 -5 -6z"/>
<path d="M2090 1589 c-12 -8 -10 -9 7 -4 19 5 22 1 25 -27 3 -28 5 -30 13 -14
15 33 -17 65 -45 45z"/>
<path d="M3266 1555 c-9 -26 -7 -32 5 -12 6 10 9 21 6 23 -2 3 -7 -2 -11 -11z"/>
<path d="M2080 1469 c0 -5 5 -7 10 -4 6 3 10 8 10 11 0 2 -4 4 -10 4 -5 0 -10
-5 -10 -11z"/>
</g>
</svg>
