<?xml version="1.0" standalone="no"?>
<!DOCTYPE svg PUBLIC "-//W3C//DTD SVG 20010904//EN"
 "http://www.w3.org/TR/2001/REC-SVG-20010904/DTD/svg10.dtd">
<svg version="1.0" xmlns="http://www.w3.org/2000/svg"
 width="700.000000pt" height="700.000000pt" viewBox="0 0 700.000000 700.000000"
 preserveAspectRatio="xMidYMid meet">
<metadata>
Created by potrace 1.14, written by Peter Selinger 2001-2017
</metadata>
<g transform="translate(0.000000,700.000000) scale(0.100000,-0.100000)"
fill="#000000" stroke="none">
<path d="M3365 5016 c-172 -40 -232 -251 -108 -378 47 -48 97 -66 198 -72 170
-11 272 -62 413 -206 62 -64 86 -106 108 -191 38 -150 3 -332 -87 -447 -19
-25 -287 -299 -391 -400 l-44 -42 -209 209 c-210 211 -257 268 -289 351 -28
69 -34 105 -40 205 -4 85 -24 135 -71 180 -121 118 -318 69 -373 -93 -7 -20
-10 -78 -7 -145 6 -194 66 -373 175 -531 61 -88 186 -211 267 -263 117 -74
284 -139 408 -158 43 -6 237 -8 270 -1 11 2 37 6 58 10 103 19 244 75 337 135
244 156 397 384 455 676 21 105 14 308 -14 415 -95 358 -361 625 -721 723
-100 28 -268 39 -335 23z"/>
<path d="M3400 4310 c-59 -12 -105 -36 -144 -76 -89 -92 -113 -214 -63 -325
102 -227 420 -229 524 -3 25 54 32 134 18 194 -11 50 -69 133 -113 162 -66 44
-150 62 -222 48z"/>
<path d="M5245 2966 c-2 -6 -3 -60 -3 -121 0 -60 -1 -113 -1 -118 -1 -4 -14
-1 -31 8 -62 32 -139 11 -186 -51 -25 -33 -29 -46 -29 -104 0 -58 4 -72 28
-103 47 -61 115 -81 183 -52 28 11 36 12 40 1 3 -8 22 -12 52 -11 l47 1 1 277
c1 152 -1 278 -5 278 -35 8 -93 4 -96 -5z m-48 -316 c29 -11 53 -45 53 -76 0
-9 -13 -29 -30 -45 -35 -35 -73 -33 -107 5 -27 32 -22 72 13 104 29 25 31 26
71 12z"/>
<path d="M1656 2901 c-2 -3 -3 -114 -2 -245 l1 -240 53 0 52 -1 1 50 c0 28 0
71 -1 98 -1 26 2 47 7 48 4 0 50 1 101 3 l92 1 0 -97 c0 -80 3 -98 15 -99 8
-1 32 -2 53 -2 l37 -1 0 244 0 244 -52 3 -53 3 0 -100 0 -100 -99 0 -99 0 -1
91 c-1 51 -4 96 -7 100 -5 9 -93 10 -98 0z"/>
<path d="M3263 2898 c-21 -27 -23 -51 -8 -75 23 -35 75 -29 93 10 12 24 11 31
-2 53 -18 26 -66 33 -83 12z"/>
<path d="M4092 2661 l3 -245 50 0 50 1 5 99 5 99 75 0 75 0 3 48 3 47 -80 0
-81 0 0 50 0 49 93 3 92 3 0 45 0 45 -148 1 -147 1 2 -246z"/>
<path d="M4448 2898 c-25 -21 -29 -57 -7 -79 24 -24 61 -24 82 -1 46 50 -22
122 -75 80z"/>
<path d="M3450 2804 c0 -51 -3 -65 -13 -61 -28 11 -41 -10 -38 -62 1 -19 5
-23 26 -19 25 5 25 4 26 -61 1 -83 5 -109 25 -139 30 -46 135 -70 152 -34 19
38 -2 87 -33 76 -21 -9 -37 25 -37 78 -1 86 -2 84 40 81 35 -2 37 0 36 25 -1
15 -3 34 -3 43 -1 13 -9 16 -36 13 -38 -3 -37 -6 -38 79 l-1 47 -53 0 -53 0 0
-66z"/>
<path d="M2230 2735 c-95 -43 -131 -169 -71 -254 73 -102 263 -87 316 24 36
78 4 184 -68 221 -45 24 -134 28 -177 9z m120 -92 c51 -30 49 -100 -3 -128
-25 -13 -38 -14 -59 -6 -65 25 -73 106 -14 135 39 20 42 20 76 -1z"/>
<path d="M2593 2731 c-84 -53 -69 -138 32 -181 49 -21 64 -38 44 -51 -17 -11
-51 -1 -62 17 -7 11 -15 10 -48 -6 -35 -18 -38 -23 -28 -41 6 -11 29 -29 52
-40 95 -43 177 -10 193 75 7 42 -20 80 -80 112 -31 16 -54 34 -52 39 3 11 41
12 66 2 9 -4 24 5 38 23 l23 29 -26 17 c-41 27 -114 29 -152 5z"/>
<path d="M2840 2740 c-9 -5 -12 -68 -12 -246 0 -132 1 -247 1 -256 1 -15 10
-18 51 -18 l50 0 0 109 0 110 35 -15 c44 -18 76 -18 121 1 125 52 132 237 13
305 -43 24 -86 26 -134 6 -20 -9 -35 -11 -37 -5 -4 13 -71 19 -88 9z m223
-112 c42 -50 -2 -133 -67 -123 -55 10 -82 66 -55 116 22 42 89 46 122 7z"/>
<path d="M3254 2738 c-4 -7 -7 -185 -5 -288 l1 -35 48 0 47 1 3 162 c1 89 -1
162 -5 163 -38 5 -85 4 -89 -3z"/>
<path d="M3775 2737 c-147 -57 -151 -252 -7 -313 153 -64 306 78 242 223 -11
25 -28 52 -38 60 -52 41 -135 54 -197 30z m128 -108 c41 -50 7 -123 -58 -123
-61 0 -94 60 -64 115 22 42 90 46 122 8z"/>
<path d="M4448 2742 c-16 -3 -18 -19 -18 -163 0 -87 3 -159 8 -160 4 0 21 -2
38 -3 57 -6 58 -1 59 164 0 84 -4 154 -9 157 -11 7 -56 10 -78 5z"/>
<path d="M4622 2580 l3 -165 45 2 c25 0 47 2 50 2 3 1 5 49 5 107 0 91 3 108
19 119 10 8 27 12 38 10 43 -9 48 -23 48 -130 0 -109 3 -115 50 -109 14 1 32
3 41 3 14 1 16 16 14 125 -4 136 -13 164 -66 192 -38 19 -67 18 -113 -7 -21
-11 -35 -16 -32 -10 10 15 -15 26 -62 26 l-42 1 2 -166z"/>
</g>
</svg>
